<svg width="32" height="32" viewBox="0 0 32 32" fill="none" xmlns="http://www.w3.org/2000/svg">
<path d="M30.5455 4.36364V2.90909H29.0909V1.45455H27.6364V0H23.2727V1.45455H21.8182V2.90909H20.3636V4.36364H18.9091V5.81818H16V7.27273H11.6364V8.72727H7.27273V10.1818H5.81818V13.0909H4.36364V17.4545H2.90909V21.8182H1.45455V26.1818H0V30.5455H1.45455V32H5.81818V30.5455H10.1818V29.0909H14.5455V27.6364H18.9091V26.1818H21.8182V24.7273H23.2727V20.3636H24.7273V16H26.1818V13.0909H27.6364V11.6364H29.0909V10.1818H30.5455V8.72727H32V4.36364H30.5455ZM21.8182 16V20.3636H20.3636V23.2727H18.9091V24.7273H14.5455V26.1818H10.1818V27.6364H7.27273V26.1818H8.72727V24.7273H10.1818V23.2727H11.6364V21.8182H16V17.4545H14.5455V16H10.1818V20.3636H8.72727V21.8182H7.27273V23.2727H5.81818V24.7273H4.36364V21.8182H5.81818V17.4545H7.27273V13.0909H8.72727V11.6364H11.6364V10.1818H16V8.72727H20.3636V10.1818H21.8182V11.6364H23.2727V16H21.8182Z" fill="white"/>
</svg>
